<mxfile host="app.diagrams.net" modified="2023-10-30T03:35:34.717Z" agent="Mozilla/5.0 (Windows NT 10.0; Win64; x64) AppleWebKit/537.36 (KHTML, like Gecko) Chrome/118.0.0.0 Safari/537.36" etag="dN_7nZaYT7QnZthx8ZgH" version="22.0.8" type="device">
  <diagram id="syEvSZ8Q-V62YxZi1XsA" name="Trang-1">
    <mxGraphModel dx="1088" dy="478" grid="1" gridSize="10" guides="1" tooltips="1" connect="1" arrows="1" fold="1" page="1" pageScale="1" pageWidth="827" pageHeight="1169" math="0" shadow="0">
      <root>
        <mxCell id="0" />
        <mxCell id="1" parent="0" />
        <mxCell id="4UpgDsgV4ZPWwIV9FVfI-1" value="" style="shape=cube;whiteSpace=wrap;html=1;boundedLbl=1;backgroundOutline=1;darkOpacity=0.05;darkOpacity2=0.1;" vertex="1" parent="1">
          <mxGeometry x="50" y="120" width="260" height="150" as="geometry" />
        </mxCell>
        <mxCell id="4UpgDsgV4ZPWwIV9FVfI-2" value="" style="shape=cube;whiteSpace=wrap;html=1;boundedLbl=1;backgroundOutline=1;darkOpacity=0.05;darkOpacity2=0.1;" vertex="1" parent="1">
          <mxGeometry x="500" y="120" width="260" height="150" as="geometry" />
        </mxCell>
        <mxCell id="4UpgDsgV4ZPWwIV9FVfI-3" value="" style="shape=cube;whiteSpace=wrap;html=1;boundedLbl=1;backgroundOutline=1;darkOpacity=0.05;darkOpacity2=0.1;" vertex="1" parent="1">
          <mxGeometry x="284" y="350" width="260" height="150" as="geometry" />
        </mxCell>
        <mxCell id="4UpgDsgV4ZPWwIV9FVfI-4" value="&lt;u&gt;&lt;font color=&quot;#66b2ff&quot;&gt;CAN Capable Node 1&lt;/font&gt;&lt;/u&gt;" style="text;html=1;strokeColor=none;fillColor=none;align=center;verticalAlign=middle;whiteSpace=wrap;rounded=0;" vertex="1" parent="1">
          <mxGeometry x="135" y="140" width="90" height="30" as="geometry" />
        </mxCell>
        <mxCell id="4UpgDsgV4ZPWwIV9FVfI-5" value="&lt;font color=&quot;#66b2ff&quot;&gt;&lt;u&gt;CAN Capable Node 2&lt;/u&gt;&lt;/font&gt;" style="text;html=1;strokeColor=none;fillColor=none;align=center;verticalAlign=middle;whiteSpace=wrap;rounded=0;" vertex="1" parent="1">
          <mxGeometry x="585" y="140" width="90" height="30" as="geometry" />
        </mxCell>
        <mxCell id="4UpgDsgV4ZPWwIV9FVfI-6" value="&lt;font color=&quot;#66b2ff&quot;&gt;&lt;u&gt;ECU&lt;/u&gt;&lt;/font&gt;" style="text;html=1;strokeColor=none;fillColor=none;align=center;verticalAlign=middle;whiteSpace=wrap;rounded=0;" vertex="1" parent="1">
          <mxGeometry x="369" y="370" width="90" height="30" as="geometry" />
        </mxCell>
        <mxCell id="4UpgDsgV4ZPWwIV9FVfI-7" value="" style="endArrow=none;html=1;rounded=0;exitX=1;exitY=1;exitDx=0;exitDy=0;exitPerimeter=0;entryX=0;entryY=0;entryDx=120;entryDy=0;entryPerimeter=0;" edge="1" parent="1" source="4UpgDsgV4ZPWwIV9FVfI-1" target="4UpgDsgV4ZPWwIV9FVfI-3">
          <mxGeometry width="50" height="50" relative="1" as="geometry">
            <mxPoint x="390" y="360" as="sourcePoint" />
            <mxPoint x="440" y="310" as="targetPoint" />
          </mxGeometry>
        </mxCell>
        <mxCell id="4UpgDsgV4ZPWwIV9FVfI-8" value="" style="endArrow=none;html=1;rounded=0;entryX=0;entryY=0;entryDx=20;entryDy=150;entryPerimeter=0;" edge="1" parent="1" target="4UpgDsgV4ZPWwIV9FVfI-2">
          <mxGeometry width="50" height="50" relative="1" as="geometry">
            <mxPoint x="410" y="350" as="sourcePoint" />
            <mxPoint x="440" y="310" as="targetPoint" />
          </mxGeometry>
        </mxCell>
        <mxCell id="4UpgDsgV4ZPWwIV9FVfI-9" value="" style="endArrow=none;html=1;rounded=0;entryX=0;entryY=0;entryDx=140;entryDy=150;entryPerimeter=0;exitX=0;exitY=0.539;exitDx=0;exitDy=0;exitPerimeter=0;" edge="1" parent="1" source="4UpgDsgV4ZPWwIV9FVfI-3" target="4UpgDsgV4ZPWwIV9FVfI-1">
          <mxGeometry width="50" height="50" relative="1" as="geometry">
            <mxPoint x="280" y="430" as="sourcePoint" />
            <mxPoint x="440" y="310" as="targetPoint" />
            <Array as="points">
              <mxPoint x="190" y="430" />
            </Array>
          </mxGeometry>
        </mxCell>
        <mxCell id="4UpgDsgV4ZPWwIV9FVfI-10" value="" style="endArrow=none;html=1;rounded=0;entryX=0;entryY=0;entryDx=140;entryDy=150;entryPerimeter=0;exitX=1.001;exitY=0.601;exitDx=0;exitDy=0;exitPerimeter=0;" edge="1" parent="1" source="4UpgDsgV4ZPWwIV9FVfI-3" target="4UpgDsgV4ZPWwIV9FVfI-2">
          <mxGeometry width="50" height="50" relative="1" as="geometry">
            <mxPoint x="585" y="440" as="sourcePoint" />
            <mxPoint x="635" y="390" as="targetPoint" />
            <Array as="points">
              <mxPoint x="640" y="440" />
            </Array>
          </mxGeometry>
        </mxCell>
        <mxCell id="4UpgDsgV4ZPWwIV9FVfI-11" value="" style="endArrow=none;html=1;rounded=0;exitX=0;exitY=0;exitDx=260;exitDy=85;exitPerimeter=0;entryX=0;entryY=0.571;entryDx=0;entryDy=0;entryPerimeter=0;" edge="1" parent="1" source="4UpgDsgV4ZPWwIV9FVfI-1" target="4UpgDsgV4ZPWwIV9FVfI-2">
          <mxGeometry width="50" height="50" relative="1" as="geometry">
            <mxPoint x="430" y="310" as="sourcePoint" />
            <mxPoint x="480" y="260" as="targetPoint" />
          </mxGeometry>
        </mxCell>
        <mxCell id="4UpgDsgV4ZPWwIV9FVfI-12" value="" style="rounded=0;whiteSpace=wrap;html=1;" vertex="1" parent="1">
          <mxGeometry x="80" y="180" width="100" height="70" as="geometry" />
        </mxCell>
        <mxCell id="4UpgDsgV4ZPWwIV9FVfI-13" value="" style="rounded=0;whiteSpace=wrap;html=1;" vertex="1" parent="1">
          <mxGeometry x="200" y="180" width="100" height="70" as="geometry" />
        </mxCell>
        <mxCell id="4UpgDsgV4ZPWwIV9FVfI-14" value="" style="rounded=0;whiteSpace=wrap;html=1;" vertex="1" parent="1">
          <mxGeometry x="580" y="180" width="100" height="70" as="geometry" />
        </mxCell>
        <mxCell id="4UpgDsgV4ZPWwIV9FVfI-16" value="" style="rounded=0;whiteSpace=wrap;html=1;" vertex="1" parent="1">
          <mxGeometry x="310" y="410" width="100" height="70" as="geometry" />
        </mxCell>
        <mxCell id="4UpgDsgV4ZPWwIV9FVfI-17" value="" style="rounded=0;whiteSpace=wrap;html=1;" vertex="1" parent="1">
          <mxGeometry x="430" y="410" width="100" height="70" as="geometry" />
        </mxCell>
        <mxCell id="4UpgDsgV4ZPWwIV9FVfI-18" value="" style="rounded=0;whiteSpace=wrap;html=1;" vertex="1" parent="1">
          <mxGeometry x="190" y="200" width="30" height="10" as="geometry" />
        </mxCell>
        <mxCell id="4UpgDsgV4ZPWwIV9FVfI-19" value="" style="rounded=0;whiteSpace=wrap;html=1;" vertex="1" parent="1">
          <mxGeometry x="190" y="220" width="30" height="10" as="geometry" />
        </mxCell>
        <mxCell id="4UpgDsgV4ZPWwIV9FVfI-22" value="" style="rounded=0;whiteSpace=wrap;html=1;" vertex="1" parent="1">
          <mxGeometry x="414" y="430" width="30" height="10" as="geometry" />
        </mxCell>
        <mxCell id="4UpgDsgV4ZPWwIV9FVfI-23" value="" style="rounded=0;whiteSpace=wrap;html=1;" vertex="1" parent="1">
          <mxGeometry x="414" y="450" width="30" height="10" as="geometry" />
        </mxCell>
        <mxCell id="4UpgDsgV4ZPWwIV9FVfI-24" value="&amp;lt;&amp;lt;ECU OS&amp;gt;&amp;gt;" style="text;html=1;strokeColor=none;fillColor=none;align=center;verticalAlign=middle;whiteSpace=wrap;rounded=0;" vertex="1" parent="1">
          <mxGeometry x="317.5" y="410" width="85" height="30" as="geometry" />
        </mxCell>
        <mxCell id="4UpgDsgV4ZPWwIV9FVfI-25" value="Entertainment Console" style="text;html=1;strokeColor=none;fillColor=none;align=center;verticalAlign=middle;whiteSpace=wrap;rounded=0;" vertex="1" parent="1">
          <mxGeometry x="445" y="410" width="70" height="30" as="geometry" />
        </mxCell>
        <mxCell id="4UpgDsgV4ZPWwIV9FVfI-26" value="*optional*&lt;br&gt;CAN Analyzer" style="text;html=1;strokeColor=none;fillColor=none;align=center;verticalAlign=middle;whiteSpace=wrap;rounded=0;" vertex="1" parent="1">
          <mxGeometry x="220" y="190" width="60" height="30" as="geometry" />
        </mxCell>
        <mxCell id="4UpgDsgV4ZPWwIV9FVfI-27" value="&amp;lt;&amp;lt;Subsystem Routines&amp;gt;&amp;gt;" style="text;html=1;strokeColor=none;fillColor=none;align=center;verticalAlign=middle;whiteSpace=wrap;rounded=0;" vertex="1" parent="1">
          <mxGeometry x="100" y="180" width="60" height="30" as="geometry" />
        </mxCell>
        <mxCell id="4UpgDsgV4ZPWwIV9FVfI-28" value="&amp;lt;&amp;lt;Subsystem Routines&amp;gt;&amp;gt;" style="text;html=1;strokeColor=none;fillColor=none;align=center;verticalAlign=middle;whiteSpace=wrap;rounded=0;" vertex="1" parent="1">
          <mxGeometry x="600" y="180" width="60" height="30" as="geometry" />
        </mxCell>
        <mxCell id="4UpgDsgV4ZPWwIV9FVfI-29" value="CAN_H/ CAN_L" style="text;html=1;strokeColor=none;fillColor=none;align=center;verticalAlign=middle;whiteSpace=wrap;rounded=0;" vertex="1" parent="1">
          <mxGeometry x="130" y="320" width="60" height="30" as="geometry" />
        </mxCell>
        <mxCell id="4UpgDsgV4ZPWwIV9FVfI-30" value="CAN_H/ CAN_L" style="text;html=1;strokeColor=none;fillColor=none;align=center;verticalAlign=middle;whiteSpace=wrap;rounded=0;" vertex="1" parent="1">
          <mxGeometry x="640" y="320" width="60" height="30" as="geometry" />
        </mxCell>
        <mxCell id="4UpgDsgV4ZPWwIV9FVfI-31" value="CAN_H/ CAN_L" style="text;html=1;strokeColor=none;fillColor=none;align=center;verticalAlign=middle;whiteSpace=wrap;rounded=0;" vertex="1" parent="1">
          <mxGeometry x="380" y="170" width="60" height="30" as="geometry" />
        </mxCell>
        <mxCell id="4UpgDsgV4ZPWwIV9FVfI-32" value="CAN_H/ CAN_L" style="text;html=1;strokeColor=none;fillColor=none;align=center;verticalAlign=middle;whiteSpace=wrap;rounded=0;" vertex="1" parent="1">
          <mxGeometry x="380" y="300" width="60" height="30" as="geometry" />
        </mxCell>
      </root>
    </mxGraphModel>
  </diagram>
</mxfile>
